# OBJ written from C:\Users\AR2R\Documents\jump_mobile\meshes\platform.obj
# Units	meters

o platform
v -0.84 -0.1838 -0.729605
v -0.81564 -0.1838 -0.788185
v -0.81564 -0.2418 -0.729605
v 0.81564 -0.1838 -0.788185
v 0.84 -0.1838 -0.729605
v 0.81564 -0.2418 -0.729605
v 0.84 -0.1838 0.730805
v 0.81564 -0.1838 0.789385
v 0.81564 -0.2418 0.730805
v -0.81564 -0.2418 0.730805
v -0.81564 -0.1838 0.789385
v -0.84 -0.1838 0.730805
v -0.84 0.1838 -0.729605
v -0.81564 0.2418 -0.729605
v -0.81564 0.1838 -0.788185
v 0.81564 0.2418 -0.729605
v 0.84 0.1838 -0.729605
v 0.81564 0.1838 -0.788185
v 0.81564 0.2418 0.730805
v 0.81564 0.1838 0.789385
v 0.84 0.1838 0.730805
v -0.81564 0.2418 0.730805
v -0.84 0.1838 0.730805
v -0.81564 0.1838 0.789385
v -0.832865 0.224812 -0.729605
v -0.832865 0.224812 0.730805
v 0.832865 0.224812 0.730805
v 0.832865 0.224812 -0.729605
v -0.832865 0.1838 0.772227
v -0.832865 -0.1838 0.772227
v 0.81564 -0.224812 -0.771027
v -0.81564 -0.224812 -0.771027
v 0.81564 0.224812 -0.771027
v -0.81564 0.224812 -0.771027
v 0.832865 -0.1838 0.772227
v 0.832865 0.1838 0.772227
v 0.832865 0.1838 -0.771027
v 0.832865 -0.1838 -0.771027
v -0.81564 -0.224812 0.772227
v 0.81564 -0.224812 0.772227
v 0.832865 -0.224812 -0.729605
v 0.832865 -0.224812 0.730805
v -0.81564 0.224812 0.772227
v 0.81564 0.224812 0.772227
v -0.832865 -0.1838 -0.771027
v -0.832865 0.1838 -0.771027
v -0.832865 -0.224812 0.730805
v -0.832865 -0.224812 -0.729605
v -0.830487 -0.21915 -0.765308
v 0.830487 -0.21915 -0.765308
v 0.830487 -0.21915 0.766508
v -0.830487 -0.21915 0.766508
v -0.830487 0.21915 -0.765308
v 0.830487 0.21915 -0.765308
v 0.830487 0.21915 0.766508
v -0.830487 0.21915 0.766508
vn 0 1 0
vn -0.5 0.5 0
vn -1 0 0
vn 0.5 0.5 0
vn 1 0 0
vn 0 0 1
vn -0.5 0 0.5
vn 0 0 -1
vn 0 -0.5 -0.5
vn 0 -1 0
vn 0 0.5 -0.5
vn 0.5 0 0.5
vn 0.5 0 -0.5
vn 0 -0.5 0.5
vn 0.5 -0.5 0
vn 0 0.5 0.5
vn -0.5 0 -0.5
vn -0.5 -0.5 0
vn -0.823347 -0.403032 -0.39958
vn 0.823347 -0.403032 -0.39958
vn 0.823347 -0.403032 0.39958
vn -0.823347 -0.403032 0.39958
vn -0.823347 0.403032 -0.39958
vn 0.823347 0.403032 -0.39958
vn 0.823347 0.403032 0.39958
vn -0.823347 0.403032 0.39958
vt 0.240717 0.706645
vt 0.00928327 0.706645
vt 0.00928327 0.666667
vt 0.240717 0.666667
vt 0.00928327 0.626689
vt 0.240717 0.626689
vt 0.740717 0.706645
vt 0.509283 0.706645
vt 0.509283 0.666667
vt 0.740717 0.666667
vt 0.509283 0.626689
vt 0.740717 0.626689
vt 0.253625 0.373311
vt 0.253625 0.626689
vt 0.247171 0.626689
vt 0.247171 0.373311
vt 0.240717 0.373311
vt 0.253625 -0.0123777
vt 0.496375 -0.0123777
vt 0.496375 0
vt 0.253625 0
vt 0.496375 0.0123777
vt 0.253625 0.0123777
vt 0.996375 0.706645
vt 0.753625 0.706645
vt 0.753625 0.666667
vt 0.996375 0.666667
vt 0.753625 0.626689
vt 0.996375 0.626689
vt 0.496375 0.626689
vt 0.496375 0.373311
vt 0.502829 0.373311
vt 0.502829 0.626689
vt 0.509283 0.373311
vt 0.753625 0.373311
vt 0.747171 0.626689
vt 0.747171 0.373311
vt 0.740717 0.373311
vt 0.253625 0.347133
vt 0.496375 0.347133
vt 0.253625 0.320955
vt 0.496375 0.320955
vt 0.509283 0.293355
vt 0.740717 0.293355
vt 0.740717 0.333333
vt 0.509283 0.333333
vt 0.496375 0.679045
vt 0.253625 0.679045
vt 0.253625 0.652867
vt 0.496375 0.652867
vt -0.00928327 0.626689
vt -0.00928327 0.373311
vt 0 0.373311
vt 0 0.626689
vt 0.00928327 0.373311
vt 0.00928327 0.293355
vt 0.240717 0.293355
vt 0.240717 0.333333
vt 0.00928327 0.333333
vt 0.25485 0.00485019
vt 0.25485 -0.00200902
vt 0.248938 -0.00106196
vt 0.247991 0.00485019
vt 0.25485 -0.00485019
vt 0.247991 -0.00200902
vt 0.24515 0.00485019
vt 0.50485 -0.00485019
vt 0.50485 -0.00200902
vt 0.498938 -0.00106196
vt 0.497991 -0.00200902
vt 0.50485 0.00485019
vt 0.497991 0.00485019
vt 0.49515 0.00485019
vt 0.500678 0.355859
vt 0.502829 0.347133
vt 0.249322 0.355859
vt 0.247171 0.347133
vt 0.99515 0.671517
vt 1.00201 0.671517
vt 1.00106 0.665605
vt 0.99515 0.664658
vt 1.00485 0.671517
vt 1.00201 0.664658
vt 0.99515 0.661817
vt 0.75485 0.671517
vt 0.752009 0.671517
vt 0.751062 0.665605
vt 0.752009 0.664658
vt 0.74515 0.671517
vt 0.74515 0.664658
vt 0.74515 0.661817
vt 0.500678 0.644141
vt 0.502829 0.652867
vt 0.247171 0.652867
vt 0.249322 0.644141
vt 0.996375 0.373311
vt 0.496375 0.987622
vt 0.253625 0.987622
mtllib platform.mtl
usemtl Default
g Default
f 22/1/1 14/2/1 25/3/2 26/4/2
f 26/4/2 25/3/2 13/5/3 23/6/3
f 16/7/1 19/8/1 27/9/4 28/10/4
f 28/10/4 27/9/4 21/11/5 17/12/5
f 11/13/6 24/14/6 29/15/7 30/16/7
f 30/16/7 29/15/7 23/6/3 12/17/3
f 2/18/8 4/19/8 31/20/9 32/21/9
f 32/21/9 31/20/9 6/22/10 3/23/10
f 14/24/1 16/25/1 33/26/11 34/27/11
f 34/27/11 33/26/11 18/28/8 15/29/8
f 20/30/6 8/31/6 35/32/12 36/33/12
f 36/33/12 35/32/12 7/34/5 21/11/5
f 4/35/8 18/28/8 37/36/13 38/37/13
f 38/37/13 37/36/13 17/12/5 5/38/5
f 8/31/6 11/13/6 39/39/14 40/40/14
f 40/40/14 39/39/14 10/41/10 9/42/10
f 9/43/10 6/44/10 41/45/15 42/46/15
f 42/46/15 41/45/15 5/38/5 7/34/5
f 19/47/1 22/48/1 43/49/16 44/50/16
f 44/50/16 43/49/16 24/14/6 20/30/6
f 15/51/8 2/52/8 45/53/17 46/54/17
f 46/54/17 45/53/17 1/55/3 13/5/3
f 3/56/10 10/57/10 47/58/18 48/59/18
f 48/59/18 47/58/18 12/17/3 1/55/3
f 1/60/3 45/61/17 49/62/19 48/63/18
f 2/64/8 32/65/9 49/62/19 45/61/17
f 3/66/10 48/63/18 49/62/19 32/65/9
f 4/67/8 38/68/13 50/69/20 31/70/9
f 5/71/5 41/72/15 50/69/20 38/68/13
f 6/73/10 31/70/9 50/69/20 41/72/15
f 7/34/5 35/32/12 51/74/21 42/75/15
f 8/31/6 40/40/14 51/74/21 35/32/12
f 9/42/10 42/75/15 51/74/21 40/40/14
f 10/41/10 39/39/14 52/76/22 47/77/18
f 11/13/6 30/16/7 52/76/22 39/39/14
f 12/17/3 47/77/18 52/76/22 30/16/7
f 13/78/3 25/79/2 53/80/23 46/81/17
f 14/82/1 34/83/11 53/80/23 25/79/2
f 15/84/8 46/81/17 53/80/23 34/83/11
f 16/85/1 28/86/4 54/87/24 33/88/11
f 17/89/5 37/90/13 54/87/24 28/86/4
f 18/91/8 33/88/11 54/87/24 37/90/13
f 19/47/1 44/50/16 55/92/25 27/93/4
f 20/30/6 36/33/12 55/92/25 44/50/16
f 21/11/5 27/93/4 55/92/25 36/33/12
f 22/48/1 26/94/2 56/95/26 43/49/16
f 23/6/3 29/15/7 56/95/26 26/94/2
f 24/14/6 43/49/16 56/95/26 29/15/7
f 6/22/10 9/42/10 10/41/10 3/23/10
f 18/28/8 4/35/8 2/96/8 15/29/8
f 21/11/5 7/34/5 5/38/5 17/12/5
f 24/14/6 11/13/6 8/31/6 20/30/6
f 13/5/3 1/55/3 12/17/3 23/6/3
f 22/48/1 19/47/1 16/97/1 14/98/1
