# OBJ written from C:\Users\AR2R\Documents\jump_mobile\meshes\player02.obj
# Units	meters

o Player
v -0.56 -0.448 -0.438
v -0.488 -0.448 -0.51
v -0.488 -0.52 -0.438
v 0.408 -0.448 -0.51
v 0.48 -0.448 -0.438
v 0.408 -0.52 -0.438
v 0.48 -0.448 0.458
v 0.408 -0.448 0.53
v 0.408 -0.52 0.458
v -0.488 -0.52 0.458
v -0.488 -0.448 0.53
v -0.56 -0.448 0.458
v -0.56 0.448 -0.438
v -0.488 0.52 -0.438
v -0.488 0.448 -0.51
v 0.408 0.52 -0.438
v 0.48 0.448 -0.438
v 0.408 0.448 -0.51
v 0.408 0.52 0.458
v 0.408 0.448 0.53
v 0.48 0.448 0.458
v -0.488 0.52 0.458
v -0.56 0.448 0.458
v -0.488 0.448 0.53
v -0.481255 -0.298667 -0.370158
v -0.420158 -0.298667 -0.431255
v -0.422678 -0.149333 -0.319692
v -0.369692 -0.149333 -0.372678
v -0.401484 0 -0.301432
v -0.351432 0 -0.351484
v -0.417672 0.149333 -0.315379
v -0.365379 0.149333 -0.367672
v -0.471242 0.298667 -0.361532
v -0.411532 0.298667 -0.421242
v 0.340158 -0.298667 -0.431255
v 0.401255 -0.298667 -0.370158
v 0.289692 -0.149333 -0.372678
v 0.342678 -0.149333 -0.319692
v 0.271432 0 -0.351484
v 0.321484 0 -0.301432
v 0.285379 0.149333 -0.367672
v 0.337672 0.149333 -0.315379
v 0.331532 0.298667 -0.421242
v 0.391242 0.298667 -0.361532
v 0.401255 -0.298667 0.390158
v 0.340158 -0.298667 0.451255
v 0.342678 -0.149333 0.339692
v 0.289692 -0.149333 0.392678
v 0.321484 0 0.321432
v 0.271432 0 0.371484
v 0.337672 0.149333 0.335379
v 0.285379 0.149333 0.387672
v 0.391242 0.298667 0.381532
v 0.331532 0.298667 0.441242
v -0.420158 -0.298667 0.451255
v -0.481255 -0.298667 0.390158
v -0.369692 -0.149333 0.392678
v -0.422678 -0.149333 0.339692
v -0.351432 0 0.371484
v -0.401484 0 0.321432
v -0.365379 0.149333 0.387672
v -0.417672 0.149333 0.335379
v -0.411532 0.298667 0.441242
v -0.471242 0.298667 0.381532
vn -0.673887 -0.673887 0.302905
vn -0.673887 -0.673887 -0.302905
vn 0.673887 -0.673887 -0.302905
vn 0.673887 -0.673887 0.302905
vn 0.302905 -0.673887 0.673887
vn -0.302905 -0.673887 0.673887
vn -0.302905 0.673887 -0.673887
vn 0.302905 0.673887 -0.673887
vn -0.673887 0.673887 0.302905
vn -0.673887 0.673887 -0.302905
vn 0.673887 0.673887 -0.302905
vn 0.673887 0.673887 0.302905
vn 0.302905 0.673887 0.673887
vn -0.302905 0.673887 0.673887
vn -0.302905 -0.673887 -0.673887
vn 0.302905 -0.673887 -0.673887
vn -0.47651 -0.738834 -0.47651
vn 0.47651 -0.738834 -0.47651
vn 0.47651 -0.738834 0.47651
vn -0.47651 -0.738834 0.47651
vn -0.47651 0.738834 -0.47651
vn 0.47651 0.738834 -0.47651
vn 0.47651 0.738834 0.47651
vn -0.47651 0.738834 0.47651
vn 0 -1 0
vn 0 1 0
vn -0.77673 0.549449 -0.307889
vn -0.736477 0.526016 -0.425333
vn -0.425333 0.526016 -0.736477
vn -0.307889 0.549449 -0.77673
vn -0.668802 0.324666 -0.668802
vn -0.706944 0.0214776 -0.706944
vn -0.677287 -0.287338 -0.677288
vn -0.723578 -0.546957 -0.421038
vn -0.421039 -0.546957 -0.723578
vn -0.747921 -0.595106 -0.294047
vn -0.294047 -0.595106 -0.747921
vn 0.307889 0.549449 -0.77673
vn 0.425333 0.526016 -0.736477
vn 0.736477 0.526016 -0.425333
vn 0.77673 0.549449 -0.307889
vn 0.668802 0.324666 -0.668802
vn 0.706944 0.0214776 -0.706944
vn 0.677287 -0.287338 -0.677288
vn 0.421039 -0.546957 -0.723578
vn 0.723578 -0.546957 -0.421038
vn 0.294047 -0.595106 -0.747921
vn 0.747921 -0.595106 -0.294047
vn 0.77673 0.549449 0.307889
vn 0.736477 0.526016 0.425333
vn 0.425333 0.526016 0.736477
vn 0.307889 0.549449 0.77673
vn 0.668802 0.324666 0.668802
vn 0.706944 0.0214776 0.706944
vn 0.677287 -0.287338 0.677288
vn 0.723578 -0.546957 0.421038
vn 0.421039 -0.546957 0.723578
vn 0.747921 -0.595106 0.294047
vn 0.294047 -0.595106 0.747921
vn -0.307889 0.549449 0.77673
vn -0.425333 0.526016 0.736477
vn -0.736477 0.526016 0.425333
vn -0.77673 0.549449 0.307889
vn -0.668802 0.324666 0.668802
vn -0.706944 0.0214776 0.706944
vn -0.677287 -0.287338 0.677288
vn -0.421039 -0.546957 0.723578
vn -0.723578 -0.546957 0.421038
vn -0.294047 -0.595106 0.747921
vn -0.747921 -0.595106 0.294047
vn -0.322334 0.495978 -0.806292
vn 0.322334 0.495978 -0.806292
vn 0 0.416447 -0.90916
vn 0 0.254567 -0.967055
vn 0 0.0165024 -0.999864
vn 0 -0.224281 -0.974524
vn 0 -0.426253 -0.904604
vn -0.319808 -0.505717 -0.801232
vn 0.319808 -0.505717 -0.801232
vn 0.806292 0.495978 -0.322334
vn 0.806292 0.495978 0.322334
vn 0.90916 0.416447 0
vn 0.967055 0.254567 0
vn 0.999864 0.0165024 0
vn 0.974524 -0.224281 0
vn 0.904604 -0.426253 0
vn 0.801232 -0.505717 -0.319808
vn 0.801232 -0.505717 0.319808
vn 0.322334 0.495978 0.806292
vn -0.322334 0.495978 0.806292
vn 0 0.416447 0.90916
vn 0 0.254567 0.967055
vn 0 0.0165024 0.999864
vn 0 -0.224281 0.974524
vn 0 -0.426253 0.904604
vn 0.319808 -0.505717 0.801232
vn -0.319808 -0.505717 0.801232
vn -0.806292 0.495978 0.322334
vn -0.806292 0.495978 -0.322334
vn -0.90916 0.416447 0
vn -0.967055 0.254567 0
vn -0.999864 0.0165024 0
vn -0.974524 -0.224281 0
vn -0.904604 -0.426253 0
vn -0.801232 -0.505717 0.319808
vn -0.801232 -0.505717 -0.319808
vt 0.232692 0.310256
vt 0.232692 0.0230769
vt 0.267308 0.0230769
vt 0.267308 0.310256
vt 0.517308 0.0230769
vt 0.517308 0.310256
vt 0.482692 0.310256
vt 0.482692 0.0230769
vt 0.482692 0.35641
vt 0.267308 0.35641
vt 0.982692 0.689744
vt 0.767308 0.689744
vt 0.767308 0.64359
vt 0.982692 0.64359
vt 0.232692 0.689744
vt 0.0173077 0.689744
vt 0.0173077 0.64359
vt 0.232692 0.64359
vt 0.732692 0.689744
vt 0.517308 0.689744
vt 0.517308 0.64359
vt 0.732692 0.64359
vt 0.482692 0.689744
vt 0.267308 0.689744
vt 0.267308 0.64359
vt 0.482692 0.64359
vt 0.267308 -0.0230769
vt 0.482692 -0.0230769
vt 0.240007 0.0099926
vt 0.259993 0.0099926
vt 0.259993 -0.0099926
vt 0.490007 0.0099926
vt 0.509993 0.0099926
vt 0.490007 -0.0099926
vt 0.517308 0.35641
vt 0.232692 0.35641
vt 0.990007 0.656674
vt 1.00999 0.676659
vt 1.00999 0.656674
vt 0.740007 0.676659
vt 0.759993 0.656674
vt 0.740007 0.656674
vt 0.482692 0.976923
vt 0.267308 0.976923
vt 1.01731 0.35641
vt 1.01731 0.404274
vt 0.982692 0.404274
vt 0.982692 0.35641
vt 1.01731 0.452137
vt 0.982692 0.452137
vt 1.01731 0.5
vt 0.982692 0.5
vt 1.01731 0.547863
vt 0.982692 0.547863
vt 1.01731 0.595727
vt 0.982692 0.595727
vt 1.01731 0.64359
vt 0.767308 0.35641
vt 0.767308 0.404274
vt 0.732692 0.404274
vt 0.732692 0.35641
vt 0.767308 0.452137
vt 0.732692 0.452137
vt 0.767308 0.5
vt 0.732692 0.5
vt 0.767308 0.547863
vt 0.732692 0.547863
vt 0.767308 0.595727
vt 0.732692 0.595727
vt 0.517308 0.404274
vt 0.482692 0.404274
vt 0.517308 0.452137
vt 0.482692 0.452137
vt 0.517308 0.5
vt 0.482692 0.5
vt 0.517308 0.547863
vt 0.482692 0.547863
vt 0.517308 0.595727
vt 0.482692 0.595727
vt 0.267308 0.404274
vt 0.232692 0.404274
vt 0.267308 0.452137
vt 0.232692 0.452137
vt 0.267308 0.5
vt 0.232692 0.5
vt 0.267308 0.547863
vt 0.232692 0.547863
vt 0.267308 0.595727
vt 0.232692 0.595727
vt 0.0173077 0.404274
vt 0.0173077 0.35641
vt 0.0173077 0.452137
vt 0.0173077 0.5
vt 0.0173077 0.547863
vt 0.0173077 0.595727
mtllib player02.mtl
usemtl Default
g Default
f 12/1/1 1/2/2 3/3/2 10/4/1
f 5/5/3 7/6/4 9/7/4 6/8/3
f 8/9/5 11/10/6 10/4/6 9/7/5
f 14/11/7 16/12/8 18/13/8 15/14/7
f 22/15/9 14/16/10 13/17/10 23/18/9
f 16/19/11 19/20/12 21/21/12 17/22/11
f 19/23/13 22/24/14 24/25/14 20/26/13
f 2/27/15 4/28/16 6/8/16 3/3/15
f 1/29/2 2/30/15 3/31/17
f 4/32/16 5/33/3 6/34/18
f 7/35/4 8/9/5 9/7/19
f 10/4/20 11/10/6 12/36/1
f 13/37/10 14/38/21 15/39/7
f 16/40/22 17/41/11 18/42/8
f 19/23/23 20/26/13 21/21/12
f 22/24/24 23/18/9 24/25/14
f 6/8/25 9/7/25 10/4/25 3/3/25
f 22/24/26 19/23/26 16/43/26 14/44/26
f 1/45/27 25/46/28 26/47/29 2/48/30
f 25/46/28 27/49/31 28/50/31 26/47/29
f 27/49/31 29/51/32 30/52/32 28/50/31
f 29/51/32 31/53/33 32/54/33 30/52/32
f 31/53/33 33/55/34 34/56/35 32/54/33
f 33/55/34 13/57/36 15/14/37 34/56/35
f 4/58/38 35/59/39 36/60/40 5/61/41
f 35/59/39 37/62/42 38/63/42 36/60/40
f 37/62/42 39/64/43 40/65/43 38/63/42
f 39/64/43 41/66/44 42/67/44 40/65/43
f 41/66/44 43/68/45 44/69/46 42/67/44
f 43/68/45 18/13/47 17/22/48 44/69/46
f 7/35/49 45/70/50 46/71/51 8/9/52
f 45/70/50 47/72/53 48/73/53 46/71/51
f 47/72/53 49/74/54 50/75/54 48/73/53
f 49/74/54 51/76/55 52/77/55 50/75/54
f 51/76/55 53/78/56 54/79/57 52/77/55
f 53/78/56 21/21/58 20/26/59 54/79/57
f 11/10/60 55/80/61 56/81/62 12/36/63
f 55/80/61 57/82/64 58/83/64 56/81/62
f 57/82/64 59/84/65 60/85/65 58/83/64
f 59/84/65 61/86/66 62/87/66 60/85/65
f 61/86/66 63/88/67 64/89/68 62/87/66
f 63/88/67 24/25/69 23/18/70 64/89/68
f 2/48/30 26/47/71 35/59/72 4/58/38
f 26/47/73 28/50/74 37/62/74 35/59/73
f 28/50/74 30/52/75 39/64/75 37/62/74
f 30/52/75 32/54/76 41/66/76 39/64/75
f 32/54/76 34/56/77 43/68/77 41/66/76
f 34/56/78 15/14/37 18/13/47 43/68/79
f 5/61/41 36/60/80 45/70/81 7/35/49
f 36/60/82 38/63/83 47/72/83 45/70/82
f 38/63/83 40/65/84 49/74/84 47/72/83
f 40/65/84 42/67/85 51/76/85 49/74/84
f 42/67/85 44/69/86 53/78/86 51/76/85
f 44/69/87 17/22/48 21/21/58 53/78/88
f 8/9/52 46/71/89 55/80/90 11/10/60
f 46/71/91 48/73/92 57/82/92 55/80/91
f 48/73/92 50/75/93 59/84/93 57/82/92
f 50/75/93 52/77/94 61/86/94 59/84/93
f 52/77/94 54/79/95 63/88/95 61/86/94
f 54/79/96 20/26/59 24/25/69 63/88/97
f 12/36/63 56/81/98 25/90/99 1/91/27
f 56/81/100 58/83/101 27/92/101 25/90/100
f 58/83/101 60/85/102 29/93/102 27/92/101
f 60/85/102 62/87/103 31/94/103 29/93/102
f 62/87/103 64/89/104 33/95/104 31/94/103
f 64/89/105 23/18/70 13/17/36 33/95/106
