# OBJ written from C:\Users\AR2R\Documents\jump_mobile\meshes\player01.obj
# Units	meters

o Player
v -0.56 -0.448 -0.438
v -0.488 -0.448 -0.51
v -0.488 -0.52 -0.438
v 0.408 -0.448 -0.51
v 0.48 -0.448 -0.438
v 0.408 -0.52 -0.438
v 0.48 -0.448 0.458
v 0.408 -0.448 0.53
v 0.408 -0.52 0.458
v -0.488 -0.52 0.458
v -0.488 -0.448 0.53
v -0.56 -0.448 0.458
v -0.56 0.448 -0.438
v -0.488 0.52 -0.438
v -0.488 0.448 -0.51
v 0.408 0.52 -0.438
v 0.48 0.448 -0.438
v 0.408 0.448 -0.51
v 0.408 0.52 0.458
v 0.408 0.448 0.53
v 0.48 0.448 0.458
v -0.488 0.52 0.458
v -0.56 0.448 0.458
v -0.488 0.448 0.53
vn -0.673887 -0.673887 0.302905
vn -0.673887 -0.673887 -0.302905
vn 0.673887 -0.673887 -0.302905
vn 0.673887 -0.673887 0.302905
vn -0.673887 -0.302905 -0.673887
vn -0.673887 0.302905 -0.673887
vn 0.302905 -0.673887 0.673887
vn -0.302905 -0.673887 0.673887
vn 0.673887 0.302905 -0.673887
vn 0.673887 -0.302905 -0.673887
vn 0.673887 0.302905 0.673887
vn 0.673887 -0.302905 0.673887
vn -0.302905 0.673887 -0.673887
vn 0.302905 0.673887 -0.673887
vn -0.673887 0.302905 0.673887
vn -0.673887 -0.302905 0.673887
vn -0.673887 0.673887 0.302905
vn -0.673887 0.673887 -0.302905
vn 0.673887 0.673887 -0.302905
vn 0.673887 0.673887 0.302905
vn 0.302905 0.673887 0.673887
vn -0.302905 0.673887 0.673887
vn -0.302905 -0.673887 -0.673887
vn 0.302905 -0.673887 -0.673887
vn -0.738834 -0.47651 -0.47651
vn -0.47651 -0.47651 -0.738834
vn -0.47651 -0.738834 -0.47651
vn 0.47651 -0.47651 -0.738834
vn 0.738834 -0.47651 -0.47651
vn 0.47651 -0.738834 -0.47651
vn 0.738834 -0.47651 0.47651
vn 0.47651 -0.47651 0.738834
vn 0.47651 -0.738834 0.47651
vn -0.47651 -0.738834 0.47651
vn -0.47651 -0.47651 0.738834
vn -0.738834 -0.47651 0.47651
vn -0.738834 0.47651 -0.47651
vn -0.47651 0.738834 -0.47651
vn -0.47651 0.47651 -0.738834
vn 0.47651 0.738834 -0.47651
vn 0.738834 0.47651 -0.47651
vn 0.47651 0.47651 -0.738834
vn 0.47651 0.738834 0.47651
vn 0.47651 0.47651 0.738834
vn 0.738834 0.47651 0.47651
vn -0.47651 0.738834 0.47651
vn -0.738834 0.47651 0.47651
vn -0.47651 0.47651 0.738834
vn 0 -1 0
vn 0 0 -1
vn 1 0 0
vn 0 0 1
vn -1 0 0
vn 0 1 0
vt 0.232692 0.310256
vt 0.232692 0.0230769
vt 0.267308 0.0230769
vt 0.267308 0.310256
vt 0.517308 0.0230769
vt 0.517308 0.310256
vt 0.482692 0.310256
vt 0.482692 0.0230769
vt 1.01731 0.35641
vt 1.01731 0.64359
vt 0.982692 0.64359
vt 0.982692 0.35641
vt 0.482692 0.35641
vt 0.267308 0.35641
vt 0.732692 0.64359
vt 0.732692 0.35641
vt 0.767308 0.35641
vt 0.767308 0.64359
vt 0.482692 0.64359
vt 0.517308 0.35641
vt 0.517308 0.64359
vt 0.982692 0.689744
vt 0.767308 0.689744
vt 0.232692 0.64359
vt 0.232692 0.35641
vt 0.267308 0.64359
vt 0.232692 0.689744
vt 0.0173077 0.689744
vt 0.0173077 0.64359
vt 0.732692 0.689744
vt 0.517308 0.689744
vt 0.482692 0.689744
vt 0.267308 0.689744
vt 0.267308 -0.0230769
vt 0.482692 -0.0230769
vt 0.240007 0.0099926
vt 0.259993 0.0099926
vt 0.259993 -0.0099926
vt 0.490007 0.0099926
vt 0.509993 0.0099926
vt 0.490007 -0.0099926
vt 0.990007 0.656674
vt 1.00999 0.676659
vt 1.00999 0.656674
vt 0.740007 0.676659
vt 0.759993 0.656674
vt 0.740007 0.656674
vt 0.0173077 0.35641
vt 0.482692 0.976923
vt 0.267308 0.976923
mtllib player01.mtl
usemtl Default
g Default
f 12/1/1 1/2/2 3/3/2 10/4/1
f 5/5/3 7/6/4 9/7/4 6/8/3
f 1/9/5 13/10/6 15/11/6 2/12/5
f 8/13/7 11/14/8 10/4/8 9/7/7
f 17/15/9 5/16/10 4/17/10 18/18/9
f 20/19/11 8/13/12 7/20/12 21/21/11
f 14/22/13 16/23/14 18/18/14 15/11/13
f 23/24/15 12/25/16 11/14/16 24/26/15
f 22/27/17 14/28/18 13/29/18 23/24/17
f 16/30/19 19/31/20 21/21/20 17/15/19
f 19/32/21 22/33/22 24/26/22 20/19/21
f 2/34/23 4/35/24 6/8/24 3/3/23
f 1/36/25 2/37/26 3/38/27
f 4/39/28 5/40/29 6/41/30
f 7/20/31 8/13/32 9/7/33
f 10/4/34 11/14/35 12/25/36
f 13/42/37 14/43/38 15/44/39
f 16/45/40 17/46/41 18/47/42
f 19/32/43 20/19/44 21/21/45
f 22/33/46 23/24/47 24/26/48
f 6/8/49 9/7/49 10/4/49 3/3/49
f 18/18/50 4/17/50 2/12/50 15/11/50
f 21/21/51 7/20/51 5/16/51 17/15/51
f 24/26/52 11/14/52 8/13/52 20/19/52
f 13/29/53 1/48/53 12/25/53 23/24/53
f 22/33/54 19/32/54 16/49/54 14/50/54
